<?xml version="1.0" standalone="no"?>
<!DOCTYPE svg PUBLIC "-//W3C//DTD SVG 20010904//EN"
 "http://www.w3.org/TR/2001/REC-SVG-20010904/DTD/svg10.dtd">
<svg version="1.0" xmlns="http://www.w3.org/2000/svg"
 width="1071.000000pt" height="1071.000000pt" viewBox="0 0 1071.000000 1071.000000"
 preserveAspectRatio="xMidYMid meet">
<metadata>
Created by potrace 1.14, written by Peter Selinger 2001-2017
</metadata>
<g transform="translate(0.000000,1071.000000) scale(0.100000,-0.100000)"
fill="#000000" stroke="none">
<path d="M2828 10285 c-2 -1 -56 -5 -121 -9 -64 -4 -123 -8 -130 -11 -6 -2
-34 -6 -62 -9 -27 -3 -61 -8 -75 -11 -14 -3 -38 -8 -55 -11 -121 -21 -438
-115 -460 -135 -5 -5 -15 -9 -23 -9 -33 0 -388 -185 -447 -233 -5 -4 -39 -29
-75 -54 -190 -137 -389 -338 -524 -531 -89 -128 -200 -332 -241 -447 -10 -27
-22 -54 -26 -60 -17 -24 -92 -282 -105 -360 -3 -22 -8 -43 -10 -46 -1 -3 -8
-37 -14 -75 -20 -122 -27 -187 -36 -304 -8 -113 -9 -7573 -1 -7586 6 -10 7450
-11 7612 0 773 47 1424 370 1865 922 23 29 114 156 125 175 6 10 31 53 57 97
47 80 114 216 150 307 51 127 126 394 142 508 11 71 17 112 21 133 25 152 25
556 1 679 -2 11 -7 47 -11 80 -3 32 -8 62 -10 65 -2 3 -6 24 -10 48 -17 114
-104 404 -157 522 -285 634 -768 1072 -1438 1302 -88 30 -280 80 -360 94 -25
4 -47 8 -50 9 -3 1 -32 5 -65 9 -32 4 -68 10 -80 12 -74 14 -378 18 -1520 19
l-1290 0 -1 1280 c0 704 -3 1321 -7 1370 -7 82 -30 253 -42 315 -3 14 -7 37
-10 51 -11 61 -57 222 -89 314 -245 699 -777 1211 -1507 1449 -58 19 -117 37
-130 40 -13 3 -62 14 -109 25 -47 10 -103 22 -124 25 -21 4 -48 8 -60 11 -73
16 -485 41 -498 30z"/>
</g>
</svg>
